<svg width="24" height="24" viewBox="0 0 24 24" fill="none" xmlns="http://www.w3.org/2000/svg">
<path fill-rule="evenodd" clip-rule="evenodd" d="M12 3.75C7.44365 3.75 3.75 7.44365 3.75 12C3.75 16.5563 7.44365 20.25 12 20.25C16.5563 20.25 20.25 16.5563 20.25 12C20.25 7.44365 16.5563 3.75 12 3.75ZM2.25 12C2.25 6.61522 6.61522 2.25 12 2.25C17.3848 2.25 21.75 6.61522 21.75 12C21.75 17.3848 17.3848 21.75 12 21.75C6.61522 21.75 2.25 17.3848 2.25 12Z" fill="#07AD55"/>
<path fill-rule="evenodd" clip-rule="evenodd" d="M12.0416 8.29145C12.3345 7.99855 12.8093 7.99855 13.1022 8.29145L16.2804 11.4696C16.5732 11.7625 16.5732 12.2373 16.2804 12.5302L13.1022 15.7084C12.8093 16.0013 12.3345 16.0013 12.0416 15.7084C11.7487 15.4155 11.7487 14.9406 12.0416 14.6477L14.6894 11.9999L12.0416 9.35211C11.7487 9.05921 11.7487 8.58434 12.0416 8.29145Z" fill="#07AD55"/>
<path fill-rule="evenodd" clip-rule="evenodd" d="M7.5 12C7.5 11.5858 7.83579 11.25 8.25 11.25H15.75C16.1642 11.25 16.5 11.5858 16.5 12C16.5 12.4142 16.1642 12.75 15.75 12.75H8.25C7.83579 12.75 7.5 12.4142 7.5 12Z" fill="#07AD55"/>
</svg>
