<svg width="34" height="42" viewBox="0 0 34 42" fill="none" xmlns="http://www.w3.org/2000/svg">
<path fill-rule="evenodd" clip-rule="evenodd" d="M16.449 0.0999144C16.8043 -0.0333048 17.1958 -0.0333048 17.551 0.0999144L32.9818 5.88646C33.5943 6.11614 34 6.70165 34 7.35578V20.8577C34 27.3448 29.7002 32.5653 25.7488 36.0228C23.7401 37.7804 21.7388 39.1555 20.2428 40.0905C19.4931 40.5591 18.8662 40.9197 18.4231 41.165C18.2014 41.2877 18.0254 41.3817 17.9027 41.4461C17.8414 41.4783 17.7934 41.5031 17.7595 41.5204C17.7427 41.5291 17.7293 41.5359 17.7196 41.5408L17.7079 41.5467L17.7042 41.5486L17.7028 41.5493C17.7023 41.5495 17.7018 41.5498 17 40.1462C16.2982 41.5498 16.2978 41.5495 16.2972 41.5493L16.2959 41.5486L16.2921 41.5467L16.2804 41.5408C16.2707 41.5359 16.2574 41.5291 16.2405 41.5204C16.2067 41.5031 16.1586 41.4783 16.0973 41.4461C15.9746 41.3817 15.7986 41.2877 15.577 41.165C15.1338 40.9197 14.5069 40.5591 13.7573 40.0905C12.2613 39.1555 10.26 37.7804 8.25128 36.0228C4.29982 32.5653 0 27.3448 0 20.8577V7.35578C0 6.70165 0.405761 6.11614 1.01824 5.88646L16.449 0.0999144ZM17 40.1462L16.2982 41.5498C16.74 41.7706 17.26 41.7706 17.7018 41.5498L17 40.1462ZM17 38.3652C17.3948 38.1448 17.9367 37.8308 18.5794 37.4291C19.9767 36.5558 21.8331 35.2788 23.6821 33.6609C27.446 30.3674 30.8616 25.9437 30.8616 20.8577V8.44326L17 3.24517L3.13846 8.44326V20.8577C3.13846 25.9437 6.55404 30.3674 10.318 33.6609C12.167 35.2788 14.0234 36.5558 15.4207 37.4291C16.0633 37.8308 16.6053 38.1448 17 38.3652Z" fill="white"/>
</svg>
