<svg width="40" height="49" viewBox="0 0 40 49" fill="none" xmlns="http://www.w3.org/2000/svg">
<path fill-rule="evenodd" clip-rule="evenodd" d="M19.3214 0.117362C19.7387 -0.0391207 20.1986 -0.0391207 20.6159 0.117362L38.7413 6.91438C39.4607 7.18417 39.9373 7.87193 39.9373 8.64028V24.5C39.9373 32.1199 34.8866 38.252 30.2451 42.3133C27.8857 44.3779 25.5349 45.9931 23.7777 47.0914C22.8971 47.6417 22.1607 48.0653 21.6402 48.3534C21.3798 48.4976 21.1731 48.608 21.029 48.6837C20.957 48.7215 20.9005 48.7506 20.8608 48.771C20.841 48.7811 20.8253 48.7891 20.8139 48.7948L20.8002 48.8018L20.7958 48.804L20.7942 48.8048C20.7935 48.8051 20.793 48.8054 19.9687 47.1567C19.1443 48.8054 19.1438 48.8051 19.1431 48.8048L19.1416 48.804L19.1371 48.8018L19.1234 48.7948C19.112 48.7891 19.0963 48.7811 19.0765 48.771C19.0368 48.7506 18.9803 48.7215 18.9083 48.6837C18.7642 48.608 18.5575 48.4976 18.2971 48.3534C17.7766 48.0653 17.0402 47.6417 16.1596 47.0914C14.4024 45.9931 12.0516 44.3779 9.69216 42.3133C5.05068 38.252 0 32.1199 0 24.5V8.64028C0 7.87193 0.476617 7.18417 1.19605 6.91438L19.3214 0.117362ZM19.9687 47.1567L19.1443 48.8054C19.6633 49.0649 20.2741 49.0649 20.793 48.8054L19.9687 47.1567ZM19.9687 45.0648C20.4323 44.8059 21.0689 44.437 21.8238 43.9652C23.4651 42.9394 25.6457 41.4393 27.8176 39.5389C32.2388 35.6704 36.2508 30.4741 36.2508 24.5V9.91766L19.9687 3.81186L3.68652 9.91766V24.5C3.68652 30.4741 7.69854 35.6704 12.1198 39.5389C14.2916 41.4393 16.4722 42.9394 18.1135 43.9652C18.8684 44.437 19.505 44.8059 19.9687 45.0648Z" fill="#0BA850"/>
</svg>
