<svg width="19" height="28" viewBox="0 0 19 28" fill="none" xmlns="http://www.w3.org/2000/svg">
<path fill-rule="evenodd" clip-rule="evenodd" d="M5.83557 2.06053C3.3985 1.69916 1.34049 0.961463 0 0V18.9926C0.0275915 21.9647 1.14504 24.3455 3.35235 26.1348C4.95265 27.3783 6.55295 28 8.15324 28V21.5401C8.07047 21.5401 7.93251 21.5098 7.73937 21.4491C6.49776 21.0549 5.86316 20.236 5.83557 18.9926V2.06053ZM12.7058 2.05435C15.1248 1.69079 17.1671 0.956016 18.5 4.79781e-07V18.9926C18.5 22.4196 17.1204 24.9824 14.3613 26.6807C12.9817 27.5602 11.6573 28 10.3881 28V21.5401C10.8848 21.5401 11.409 21.2823 11.9609 20.7668C12.4299 20.2815 12.6782 19.6901 12.7058 18.9926V2.05435Z" fill="#0BA850"/>
</svg>
