<svg width="34" height="42" viewBox="0 0 34 42" fill="none" xmlns="http://www.w3.org/2000/svg">
<path fill-rule="evenodd" clip-rule="evenodd" d="M16.4491 0.0999147C16.8043 -0.0333049 17.1958 -0.0333049 17.5511 0.0999147L32.9819 5.88648C33.5944 6.11616 34.0002 6.70167 34.0002 7.3558V20.8578C34.0002 27.3449 29.7003 32.5654 25.7489 36.023C23.7401 37.7806 21.7389 39.1557 20.2428 40.0907C19.4932 40.5592 18.8663 40.9198 18.4231 41.1651C18.2015 41.2878 18.0255 41.3819 17.9028 41.4463C17.8415 41.4785 17.7934 41.5033 17.7596 41.5206C17.7427 41.5293 17.7294 41.536 17.7197 41.5409L17.708 41.5468L17.7042 41.5487L17.7029 41.5494C17.7023 41.5497 17.7019 41.5499 17.0001 40.1463C16.2983 41.5499 16.2978 41.5497 16.2973 41.5494L16.2959 41.5487L16.2922 41.5468L16.2805 41.5409C16.2708 41.536 16.2574 41.5293 16.2405 41.5206C16.2067 41.5033 16.1587 41.4785 16.0974 41.4463C15.9747 41.3819 15.7987 41.2878 15.577 41.1651C15.1339 40.9198 14.507 40.5592 13.7573 40.0907C12.2613 39.1557 10.26 37.7806 8.25131 36.023C4.29984 32.5654 0 27.3449 0 20.8578V7.3558C0 6.70167 0.405762 6.11616 1.01824 5.88648L16.4491 0.0999147ZM17.0001 40.1463L16.2983 41.5499C16.7401 41.7708 17.2601 41.7708 17.7019 41.5499L17.0001 40.1463ZM17.0001 38.3654C17.3948 38.145 17.9368 37.8309 18.5795 37.4293C19.9767 36.556 21.8331 35.2789 23.6822 33.661C27.4461 30.3676 30.8617 25.9438 30.8617 20.8578V8.44329L17.0001 3.24519L3.13848 8.44329V20.8578C3.13848 25.9438 6.55406 30.3676 10.318 33.661C12.167 35.2789 14.0234 36.556 15.4207 37.4293C16.0634 37.8309 16.6053 38.145 17.0001 38.3654Z" fill="white"/>
</svg>
