<svg width="136" height="32" viewBox="0 0 136 32" fill="none" xmlns="http://www.w3.org/2000/svg">
<rect width="32" height="32" rx="9" fill="#07AD55"/>
<path d="M16 7.04637C18.9152 7.04637 19.2608 7.05597 20.4128 7.11037C21.4784 7.15837 22.0576 7.33757 22.4416 7.48797C22.9504 7.68637 23.3152 7.92317 23.696 8.30397C24.0768 8.68477 24.3136 9.04957 24.512 9.55837C24.6624 9.94237 24.8384 10.5216 24.8896 11.5872C24.9408 12.7392 24.9536 13.0848 24.9536 16C24.9536 18.9152 24.944 19.2608 24.8896 20.4128C24.8416 21.4784 24.6624 22.0576 24.512 22.4416C24.3136 22.9504 24.0768 23.3152 23.696 23.696C23.3152 24.0768 22.9504 24.3136 22.4416 24.512C22.0576 24.6624 21.4784 24.8384 20.4128 24.8896C19.2608 24.9408 18.9152 24.9536 16 24.9536C13.0848 24.9536 12.7392 24.944 11.5872 24.8896C10.5216 24.8416 9.9424 24.6624 9.5584 24.512C9.0496 24.3136 8.6848 24.0768 8.304 23.696C7.9232 23.3152 7.6864 22.9504 7.488 22.4416C7.3376 22.0576 7.1616 21.4784 7.1104 20.4128C7.0592 19.2608 7.0464 18.9152 7.0464 16C7.0464 13.0848 7.056 12.7392 7.1104 11.5872C7.1584 10.5216 7.3376 9.94237 7.488 9.55837C7.6864 9.04957 7.9232 8.68477 8.304 8.30397C8.6848 7.92317 9.0496 7.68637 9.5584 7.48797C9.9424 7.33757 10.5216 7.16157 11.5872 7.11037C12.7392 7.05597 13.0848 7.04637 16 7.04637ZM16 5.07837C13.0336 5.07837 12.6624 5.09117 11.4976 5.14557C10.336 5.19997 9.5424 5.38237 8.84479 5.65437C8.128 5.92957 7.5168 6.30397 6.912 6.91197C6.304 7.51997 5.9328 8.12797 5.6512 8.84797C5.3824 9.54237 5.1968 10.336 5.1424 11.5008C5.088 12.6656 5.0752 13.0368 5.0752 16.0032C5.0752 18.9696 5.088 19.3408 5.1424 20.5056C5.1968 21.6672 5.3792 22.4608 5.6512 23.1584C5.9296 23.872 6.304 24.4832 6.912 25.088C7.52 25.696 8.128 26.0672 8.848 26.3488C9.5424 26.6176 10.336 26.8032 11.5008 26.8576C12.6656 26.912 13.0368 26.9248 16.0032 26.9248C18.9696 26.9248 19.3408 26.912 20.5056 26.8576C21.6672 26.8032 22.4608 26.6208 23.1584 26.3488C23.872 26.0704 24.4832 25.696 25.088 25.088C25.696 24.48 26.0672 23.872 26.3488 23.152C26.6176 22.4576 26.8032 21.664 26.8576 20.4992C26.912 19.3344 26.9248 18.9632 26.9248 15.9968C26.9248 13.0304 26.912 12.6592 26.8576 11.4944C26.8032 10.3328 26.6208 9.53917 26.3488 8.84157C26.0704 8.12797 25.696 7.51677 25.088 6.91197C24.48 6.30397 23.872 5.93277 23.152 5.65117C22.4576 5.38237 21.664 5.19677 20.4992 5.14237C19.3376 5.09117 18.9664 5.07837 16 5.07837Z" fill="white"/>
<path d="M16.0002 10.3904C12.9026 10.3904 10.3906 12.9024 10.3906 16C10.3906 19.0976 12.9026 21.6096 16.0002 21.6096C19.0978 21.6096 21.6098 19.0976 21.6098 16C21.6098 12.9024 19.0978 10.3904 16.0002 10.3904ZM16.0002 19.6416C13.9906 19.6416 12.3586 18.0128 12.3586 16C12.3586 13.9872 13.9906 12.3584 16.0002 12.3584C18.0098 12.3584 19.6418 13.9872 19.6418 16C19.6418 18.0128 18.0098 19.6416 16.0002 19.6416Z" fill="white"/>
<path d="M21.8306 11.4816C22.5552 11.4816 23.1426 10.8942 23.1426 10.1696C23.1426 9.44501 22.5552 8.8576 21.8306 8.8576C21.106 8.8576 20.5186 9.44501 20.5186 10.1696C20.5186 10.8942 21.106 11.4816 21.8306 11.4816Z" fill="white"/>
<g clip-path="url(#clip0_1_1459)">
<rect x="52" width="32" height="32" rx="9" fill="#07AD55"/>
<path d="M67.625 32.25C76.8067 32.25 84.25 24.8067 84.25 15.625C84.25 6.44327 76.8067 -1 67.625 -1C58.4433 -1 51 6.44327 51 15.625C51 24.8067 58.4433 32.25 67.625 32.25Z" fill="#07AD55"/>
<path d="M77.7783 8.56579L74.8105 23.5348C74.8105 23.5348 74.3949 24.5738 73.2519 24.0738L66.4006 18.82L63.9069 17.6186L59.7116 16.2094C59.7116 16.2094 59.0687 15.9821 59.0038 15.4821C58.9388 14.982 59.7311 14.7157 59.7311 14.7157L76.4081 8.17614C76.4081 8.16965 77.7783 7.56569 77.7783 8.56579Z" fill="white"/>
<path d="M65.8685 23.3661C65.8685 23.3661 65.6671 23.3466 65.4204 22.5609C65.1736 21.7751 63.9072 17.6188 63.9072 17.6188L73.9796 11.2221C73.9796 11.2221 74.5641 10.8714 74.5381 11.2221C74.5381 11.2221 74.642 11.287 74.3303 11.5728C74.0186 11.865 66.4205 18.6968 66.4205 18.6968" fill="#07AD55"/>
<path d="M69.0237 20.8333L66.3156 23.3076C66.3156 23.3076 66.1013 23.4699 65.874 23.366L66.3936 18.7747" fill="white"/>
</g>
<rect x="104" width="32" height="32" rx="9" fill="#07AD55"/>
<path d="M126.228 20.625L126.938 16H122.5V12.9988C122.5 11.7334 123.12 10.5 125.108 10.5H127.125V6.5625C127.125 6.5625 125.294 6.25 123.543 6.25C119.889 6.25 117.5 8.465 117.5 12.475V16H113.438V20.625H117.5V31.8056C118.315 31.9334 119.149 32 120 32C120.851 32 121.685 31.9334 122.5 31.8056V20.625H126.228Z" fill="white"/>
<defs>
<clipPath id="clip0_1_1459">
<rect x="52" width="32" height="32" rx="9" fill="white"/>
</clipPath>
</defs>
</svg>
