<svg width="98" height="20" viewBox="0 0 98 20" fill="none" xmlns="http://www.w3.org/2000/svg">
<path d="M87.9739 19.4752C86.5313 19.4752 85.224 19.2047 84.0518 18.6637C82.8978 18.1047 81.8969 17.3654 81.0494 16.4457C80.2199 15.508 79.5798 14.4621 79.129 13.308C78.6781 12.1359 78.4527 10.9277 78.4527 9.6835C78.4527 8.40318 78.6871 7.18598 79.156 6.0319C79.6429 4.87781 80.3101 3.84996 81.1576 2.94833C82.0232 2.02867 83.042 1.30736 84.2141 0.784417C85.3863 0.261473 86.6666 0 88.0551 0C89.4797 0 90.769 0.279505 91.9231 0.838516C93.0952 1.37949 94.096 2.11883 94.9255 3.05652C95.773 3.99422 96.4222 5.04912 96.873 6.22124C97.3238 7.37533 97.5492 8.55646 97.5492 9.76464C97.5492 11.045 97.3148 12.2622 96.846 13.4162C96.3771 14.5703 95.7099 15.6072 94.8443 16.5269C93.9788 17.4285 92.9599 18.1498 91.7878 18.6908C90.6337 19.2137 89.3624 19.4752 87.9739 19.4752ZM82.9699 9.73759C82.9699 10.4769 83.0781 11.1982 83.2945 11.9015C83.5109 12.5867 83.8264 13.1998 84.2412 13.7408C84.674 14.2818 85.2059 14.7146 85.8371 15.0392C86.4682 15.3638 87.1895 15.5261 88.001 15.5261C88.8485 15.5261 89.5878 15.3638 90.219 15.0392C90.8501 14.6966 91.3731 14.2457 91.7878 13.6867C92.2026 13.1277 92.5091 12.5056 92.7075 11.8204C92.9239 11.1171 93.0321 10.4048 93.0321 9.6835C93.0321 8.94416 92.9239 8.23187 92.7075 7.54663C92.4911 6.8614 92.1665 6.24829 91.7337 5.70731C91.3009 5.1483 90.769 4.71552 90.1378 4.40897C89.5067 4.10241 88.7944 3.94914 88.001 3.94914C87.1534 3.94914 86.4141 4.11143 85.783 4.43602C85.1699 4.7606 84.6469 5.2024 84.2141 5.76141C83.7994 6.30239 83.4838 6.92451 83.2674 7.62778C83.0691 8.31302 82.9699 9.01629 82.9699 9.73759Z" fill="white"/>
<path d="M61.626 19.3129V0.1082H70.2816C71.1833 0.1082 72.0128 0.297542 72.7701 0.676227C73.5455 1.03688 74.2127 1.53277 74.7718 2.16392C75.3308 2.77702 75.7636 3.47128 76.0701 4.24668C76.3947 5.02208 76.557 5.8065 76.557 6.59993C76.557 7.39336 76.4308 8.15073 76.1783 8.87204C75.9258 9.5753 75.5652 10.2155 75.0963 10.7925C74.6275 11.3515 74.0685 11.8113 73.4193 12.172L77.6389 19.3129H72.7431L69.0644 13.1187H66.062V19.3129H61.626ZM66.062 9.25072H70.1194C70.48 9.25072 70.7956 9.14252 71.0661 8.92613C71.3546 8.69171 71.589 8.37614 71.7693 7.97942C71.9497 7.58271 72.0398 7.12287 72.0398 6.59993C72.0398 6.07698 71.9316 5.62617 71.7152 5.24749C71.5169 4.85077 71.2644 4.54421 70.9579 4.32782C70.6513 4.11143 70.3267 4.00324 69.9841 4.00324H66.062V9.25072Z" fill="white"/>
<path d="M58.931 15.4179V19.3129H45.4337V0.1082H58.6876V4.00324H49.8697V7.73598H57.4434V11.3335H49.8697V15.4179H58.931Z" fill="white"/>
<path d="M43.2672 4.00324H37.4246V19.3129H32.9886V4.00324H27.119V0.1082H43.2672V4.00324Z" fill="white"/>
<path d="M12.5454 8.33106V19.3129H8.10938V0.1082H11.6257L20.5248 11.4146V0.1082H24.9608V19.3129H21.3363L12.5454 8.33106Z" fill="white"/>
<path d="M0 19.3129V0.1082H4.43602V19.3129H0Z" fill="white"/>
</svg>
